<svg width="512" height="512" viewBox="0 0 512 512" fill="none" xmlns="http://www.w3.org/2000/svg">
<g clip-path="url(#clip0_492_8)">
<rect width="512" height="512" fill="url(#paint0_linear_492_8)"/>
<rect width="512" height="512" fill="black" fill-opacity="0.4"/>
<g opacity="0.08">
<path d="M460 0L972 512" stroke="white" stroke-width="12" stroke-linecap="square"/>
<path d="M420 0L932 512" stroke="white" stroke-width="12" stroke-linecap="square"/>
<path d="M380 0L892 512" stroke="white" stroke-width="12" stroke-linecap="square"/>
<path d="M340 0L852 512" stroke="white" stroke-width="12" stroke-linecap="square"/>
<path d="M300 0L812 512" stroke="white" stroke-width="12" stroke-linecap="square"/>
<path d="M260 0L772 512" stroke="white" stroke-width="12" stroke-linecap="square"/>
<path d="M220 0L732 512" stroke="white" stroke-width="12" stroke-linecap="square"/>
<path d="M180 0L692 512" stroke="white" stroke-width="12" stroke-linecap="square"/>
<path d="M140 0L652 512" stroke="white" stroke-width="12" stroke-linecap="square"/>
<path d="M100 0L612 512" stroke="white" stroke-width="12" stroke-linecap="square"/>
<path d="M60 0L572 512" stroke="white" stroke-width="12" stroke-linecap="square"/>
<path d="M20 0L532 512" stroke="white" stroke-width="12" stroke-linecap="square"/>
<path d="M-20 0L492 512" stroke="white" stroke-width="12" stroke-linecap="square"/>
<path d="M-60 0L452 512" stroke="white" stroke-width="12" stroke-linecap="square"/>
<path d="M-100 0L412 512" stroke="white" stroke-width="12" stroke-linecap="square"/>
<path d="M-140 0L372 512" stroke="white" stroke-width="12" stroke-linecap="square"/>
<path d="M-180 0L332 512" stroke="white" stroke-width="12" stroke-linecap="square"/>
<path d="M-220 0L292 512" stroke="white" stroke-width="12" stroke-linecap="square"/>
<path d="M-260 0L252 512" stroke="white" stroke-width="12" stroke-linecap="square"/>
<path d="M-300 0L212 512" stroke="white" stroke-width="12" stroke-linecap="square"/>
<path d="M-340 0L172 512" stroke="white" stroke-width="12" stroke-linecap="square"/>
<path d="M-380 0L132 512" stroke="white" stroke-width="12" stroke-linecap="square"/>
<path d="M-420 0L92 512" stroke="white" stroke-width="12" stroke-linecap="square"/>
<path d="M-460 0L52 512" stroke="white" stroke-width="12" stroke-linecap="square"/>
<path d="M-497 1L15 513" stroke="white" stroke-width="12" stroke-linecap="square"/>
<path d="M489 -2L1001 510" stroke="white" stroke-width="12" stroke-linecap="square"/>
</g>
<g filter="url(#filter0_f_492_8)">
<path d="M179.765 250C174.598 250 170.307 248.458 166.89 245.375C163.557 242.292 161.89 238.375 161.89 233.625C161.89 232.708 161.682 231.292 161.265 229.375C160.932 227.458 160.765 226 160.765 225C160.765 220.333 162.515 216.5 166.015 213.5C169.598 210.417 173.848 208.875 178.765 208.875C191.265 208.875 197.515 217.125 197.515 233.625C197.515 238.375 195.807 242.292 192.39 245.375C189.057 248.458 184.848 250 179.765 250ZM181.765 334.625C168.848 334.625 162.39 324.875 162.39 305.375C162.39 300.708 164.265 296.792 168.015 293.625C171.598 290.708 175.807 289.25 180.64 289.25C193.307 289.25 199.64 298.875 199.64 318.125C199.64 322.875 197.932 326.833 194.515 330C191.098 333.083 186.848 334.625 181.765 334.625ZM315.36 248.75C332.527 258.333 341.11 273.667 341.11 294.75C341.11 311.75 334.818 326.167 322.235 338C309.652 349.833 294.36 355.75 276.36 355.75C262.943 355.75 250.86 353.042 240.11 347.625C227.693 341.292 219.318 332.292 214.985 320.625C214.318 318.875 213.985 317 213.985 315C213.985 310.333 215.86 306.458 219.61 303.375C223.11 300.542 227.11 299.125 231.61 299.125C236.86 299.125 241.068 301.208 244.235 305.375C249.568 312.542 252.652 316.458 253.485 317.125C258.652 321.292 266.277 323.375 276.36 323.375C284.277 323.375 291.193 321 297.11 316.25C303.11 311.5 306.11 305.792 306.11 299.125C306.11 278.375 292.152 266.625 264.235 263.875C251.985 262.708 245.86 257.583 245.86 248.5C245.86 241.583 250.61 236.542 260.11 233.375C269.11 231.375 278.068 229.333 286.985 227.25C292.652 225.5 296.902 223.208 299.735 220.375C302.568 217.542 304.027 214.167 304.11 210.25C304.443 197.833 294.735 191.625 274.985 191.625C268.485 191.625 261.36 194.125 253.61 199.125C245.86 204.042 240.568 206.5 237.735 206.5C232.985 206.5 228.943 204.792 225.61 201.375C222.277 197.958 220.61 194.083 220.61 189.75C220.61 182.667 227.61 175.625 241.61 168.625C254.11 162.375 264.277 159.25 272.11 159.25C291.027 159.25 306.235 163.333 317.735 171.5C330.318 180.5 336.61 193.333 336.61 210C336.61 219.167 334.818 227 331.235 233.5C327.735 239.917 322.443 245 315.36 248.75Z" fill="url(#paint1_linear_492_8)"/>
</g>
<path d="M179.765 250C174.598 250 170.307 248.458 166.89 245.375C163.557 242.292 161.89 238.375 161.89 233.625C161.89 232.708 161.682 231.292 161.265 229.375C160.932 227.458 160.765 226 160.765 225C160.765 220.333 162.515 216.5 166.015 213.5C169.598 210.417 173.848 208.875 178.765 208.875C191.265 208.875 197.515 217.125 197.515 233.625C197.515 238.375 195.807 242.292 192.39 245.375C189.057 248.458 184.848 250 179.765 250ZM181.765 334.625C168.848 334.625 162.39 324.875 162.39 305.375C162.39 300.708 164.265 296.792 168.015 293.625C171.598 290.708 175.807 289.25 180.64 289.25C193.307 289.25 199.64 298.875 199.64 318.125C199.64 322.875 197.932 326.833 194.515 330C191.098 333.083 186.848 334.625 181.765 334.625ZM315.36 248.75C332.527 258.333 341.11 273.667 341.11 294.75C341.11 311.75 334.818 326.167 322.235 338C309.652 349.833 294.36 355.75 276.36 355.75C262.943 355.75 250.86 353.042 240.11 347.625C227.693 341.292 219.318 332.292 214.985 320.625C214.318 318.875 213.985 317 213.985 315C213.985 310.333 215.86 306.458 219.61 303.375C223.11 300.542 227.11 299.125 231.61 299.125C236.86 299.125 241.068 301.208 244.235 305.375C249.568 312.542 252.652 316.458 253.485 317.125C258.652 321.292 266.277 323.375 276.36 323.375C284.277 323.375 291.193 321 297.11 316.25C303.11 311.5 306.11 305.792 306.11 299.125C306.11 278.375 292.152 266.625 264.235 263.875C251.985 262.708 245.86 257.583 245.86 248.5C245.86 241.583 250.61 236.542 260.11 233.375C269.11 231.375 278.068 229.333 286.985 227.25C292.652 225.5 296.902 223.208 299.735 220.375C302.568 217.542 304.027 214.167 304.11 210.25C304.443 197.833 294.735 191.625 274.985 191.625C268.485 191.625 261.36 194.125 253.61 199.125C245.86 204.042 240.568 206.5 237.735 206.5C232.985 206.5 228.943 204.792 225.61 201.375C222.277 197.958 220.61 194.083 220.61 189.75C220.61 182.667 227.61 175.625 241.61 168.625C254.11 162.375 264.277 159.25 272.11 159.25C291.027 159.25 306.235 163.333 317.735 171.5C330.318 180.5 336.61 193.333 336.61 210C336.61 219.167 334.818 227 331.235 233.5C327.735 239.917 322.443 245 315.36 248.75Z" fill="white"/>
</g>
<defs>
<filter id="filter0_f_492_8" x="122.065" y="120.55" width="257.746" height="273.9" filterUnits="userSpaceOnUse" color-interpolation-filters="sRGB">
<feFlood flood-opacity="0" result="BackgroundImageFix"/>
<feBlend mode="normal" in="SourceGraphic" in2="BackgroundImageFix" result="shape"/>
<feGaussianBlur stdDeviation="19.35" result="effect1_foregroundBlur_492_8"/>
</filter>
<linearGradient id="paint0_linear_492_8" x1="0" y1="0" x2="512" y2="512" gradientUnits="userSpaceOnUse">
<stop stop-color="#4DAFFF"/>
<stop offset="1" stop-color="#D15DFF"/>
</linearGradient>
<linearGradient id="paint1_linear_492_8" x1="240" y1="134" x2="240" y2="359" gradientUnits="userSpaceOnUse">
<stop stop-color="#FF89F7"/>
<stop offset="1" stop-color="#36C9FF"/>
</linearGradient>
<clipPath id="clip0_492_8">
<rect width="512" height="512" fill="white"/>
</clipPath>
</defs>
</svg>
