<svg width="512" height="512" viewBox="0 0 512 512" fill="none" xmlns="http://www.w3.org/2000/svg">
<rect width="512" height="512" fill="#1D1D1D"/>
<rect x="176" y="81" width="246" height="245" fill="#2A2A2A"/>
<path d="M109 82H158V430H90V101C90 90.5066 98.5066 82 109 82Z" fill="#2A2A2A"/>
<path d="M109 82H158V430H90V101C90 90.5066 98.5066 82 109 82Z" stroke="white" stroke-width="2"/>
<rect x="141.5" y="413.5" width="5" height="5" rx="2.5" fill="#D9D9D9" stroke="#535353"/>
<rect x="140.5" y="91.5" width="5" height="5" rx="2.5" fill="#D9D9D9" stroke="#535353"/>
<rect x="101.5" y="413.5" width="5" height="5" rx="2.5" fill="#D9D9D9" stroke="#535353"/>
<rect x="102.5" y="95.5" width="5" height="5" rx="2.5" fill="#D9D9D9" stroke="#535353"/>
<rect x="154" y="426" width="10" height="10" fill="#D9D9D9" stroke="#535353" stroke-width="2"/>
<rect x="84" y="426" width="10" height="10" fill="#D9D9D9" stroke="#535353" stroke-width="2"/>
<rect x="154" y="76" width="10" height="10" fill="#D9D9D9" stroke="#535353" stroke-width="2"/>
<rect x="85" y="76" width="10" height="10" fill="#D9D9D9" stroke="#535353" stroke-width="2"/>
<mask id="path-11-inside-1_676_306" fill="white">
<path d="M299.5 81C267.011 81 235.853 93.9062 212.879 116.879C189.906 139.853 177 171.011 177 203.5C177 235.989 189.906 267.147 212.879 290.121C235.853 313.094 267.011 326 299.5 326L299.5 252.5C286.504 252.5 274.041 247.338 264.852 238.148C255.662 228.959 250.5 216.496 250.5 203.5C250.5 190.504 255.662 178.041 264.852 168.852C274.041 159.662 286.504 154.5 299.5 154.5V81Z"/>
</mask>
<path d="M299.5 81C267.011 81 235.853 93.9062 212.879 116.879C189.906 139.853 177 171.011 177 203.5C177 235.989 189.906 267.147 212.879 290.121C235.853 313.094 267.011 326 299.5 326L299.5 252.5C286.504 252.5 274.041 247.338 264.852 238.148C255.662 228.959 250.5 216.496 250.5 203.5C250.5 190.504 255.662 178.041 264.852 168.852C274.041 159.662 286.504 154.5 299.5 154.5V81Z" fill="#FFA962" fill-opacity="0.2" stroke="white" stroke-width="4" mask="url(#path-11-inside-1_676_306)"/>
<rect x="297.5" y="285.5" width="5" height="5" rx="2.5" fill="#D9D9D9" stroke="#535353"/>
<rect x="246.5" y="200.5" width="5" height="5" rx="2.5" fill="#D9D9D9" stroke="#535353"/>
<rect x="297.5" y="112.5" width="5" height="5" rx="2.5" fill="#D9D9D9" stroke="#535353"/>
<rect x="178" y="82" width="243" height="243" stroke="white" stroke-width="2"/>
<rect x="172" y="321" width="10" height="10" fill="#D9D9D9" stroke="#535353" stroke-width="2"/>
<rect x="417" y="321" width="10" height="10" fill="#D9D9D9" stroke="#535353" stroke-width="2"/>
<rect x="417" y="76" width="10" height="10" fill="#D9D9D9" stroke="#535353" stroke-width="2"/>
<rect x="172" y="76" width="10" height="10" fill="#D9D9D9" stroke="#535353" stroke-width="2"/>
<g clip-path="url(#clip0_676_306)">
<path d="M220 326.25C220 323.45 220 161.417 220 80.75" stroke="white" stroke-opacity="0.5"/>
<path d="M273 326.25C273 323.45 273 161.417 273 80.75" stroke="white" stroke-opacity="0.5"/>
<path d="M326 326.25C326 323.45 326 161.417 326 80.75" stroke="white" stroke-opacity="0.5"/>
<path d="M379 326.25C379 323.45 379 161.417 379 80.75" stroke="white" stroke-opacity="0.5"/>
</g>
<g clip-path="url(#clip1_676_306)">
<path d="M422.25 283C419.45 283 257.417 283 176.75 283" stroke="white" stroke-opacity="0.5"/>
<path d="M422.25 230C419.45 230 257.417 230 176.75 230" stroke="white" stroke-opacity="0.5"/>
<path d="M422.25 177C419.45 177 257.417 177 176.75 177" stroke="white" stroke-opacity="0.5"/>
<path d="M422.25 124C419.45 124 257.417 124 176.75 124" stroke="white" stroke-opacity="0.5"/>
</g>
<defs>
<clipPath id="clip0_676_306">
<rect width="245" height="245" fill="white" transform="translate(177 81)"/>
</clipPath>
<clipPath id="clip1_676_306">
<rect width="245" height="245" fill="white" transform="matrix(0 -1 1 0 177 326)"/>
</clipPath>
</defs>
</svg>
